# Blender v2.76 (sub 0) OBJ File: 'Court_BigBox.blend'
# www.blender.org
mtllib BigBoxR.mtl
o BoxR_BigPlane_Plane.002
v 3.409550 2.809165 -19.064777
v 3.409550 3.921881 -19.064777
v 5.558415 3.921881 -19.064777
v 5.558415 2.809165 -19.064777
v 3.409550 2.809165 -19.894426
v 5.558416 2.809165 -19.894426
v 5.558415 3.921881 -19.894426
v 3.409550 3.921881 -19.894426
vn 0.000000 0.000000 -1.000000
vn -0.000000 0.000000 1.000000
vn 0.000000 -1.000000 0.000000
vn -1.000000 0.000000 -0.000000
vn -0.000000 1.000000 0.000000
vn 1.000000 0.000000 0.000000
usemtl None.002
s off
f 1//1 2//1 3//1 4//1
f 5//2 6//2 7//2 8//2
f 3//3 2//3 8//3 7//3
f 4//4 3//4 7//4 6//4
f 1//5 4//5 6//5 5//5
f 2//6 1//6 5//6 8//6
